HIERARCHY
ROOT Hips
{
   OFFSET 0.00000 0.00000 0.00000
   CHANNELS 6 Xposition Yposition Zposition Zrotation Xrotation Yrotation
   JOINT Spine
   {
      OFFSET 0.000000 15.457650 0.000000
      CHANNELS 3 Zrotation Xrotation Yrotation
      JOINT Spine1
      {
         OFFSET -0.000000 33.354620 0.165958
         CHANNELS 3 Zrotation Xrotation Yrotation
         JOINT HEad
         {
            OFFSET 0.000000 11.354408 0.014742
            CHANNELS 3 Zrotation Xrotation Yrotation
            End Site
            {
               OFFSET -0.377000 16.606459 3.268135
            }
         }
         JOINT LeftShoulder1
         {
            OFFSET 11.687000 -0.470925 -0.286000
            CHANNELS 3 Zrotation Xrotation Yrotation
            JOINT LeftArm
            {
               OFFSET 13.367510 -0.004394 0.418756
               CHANNELS 3 Zrotation Xrotation Yrotation
               JOINT LeftForeArm
               {
                  OFFSET 42.596969 0.128882 -1.851642
                  CHANNELS 3 Zrotation Xrotation Yrotation
                  JOINT LeftHand
                  {
                     OFFSET 35.833589 0.110968 1.328808
                     CHANNELS 3 Zrotation Xrotation Yrotation
                     End Site
                     {
                        OFFSET 21.767590 -0.780000 1.953783
                     }
                  }
               }
            }
         }
         JOINT RightShoulder
         {
            OFFSET -11.687000 -0.470925 -0.286000
            CHANNELS 3 Zrotation Xrotation Yrotation
            JOINT RightArm
            {
               OFFSET -13.367510 -0.004394 0.418756
               CHANNELS 3 Zrotation Xrotation Yrotation
               JOINT RightForeArm
               {
                  OFFSET -42.766227 0.128882 -1.851642
                  CHANNELS 3 Zrotation Xrotation Yrotation
                  JOINT RightHand
                  {
                     OFFSET -35.739729 0.110968 1.328808
                     CHANNELS 3 Zrotation Xrotation Yrotation
                     End Site
                     {
                        OFFSET -21.620562 -0.780000 1.953783
                     }
                  }
               }
            }
         }
      }
   }
   JOINT LeftUpLeg
   {
      OFFSET 11.629540 -11.267191 0.132145
      CHANNELS 3 Zrotation Xrotation Yrotation
      JOINT LeftLeg
      {
         OFFSET 0.000000 -57.749504 1.784510
         CHANNELS 3 Zrotation Xrotation Yrotation
         JOINT LeftFoot
         {
            OFFSET -0.329615 -54.720115 -1.898767
            CHANNELS 3 Zrotation Xrotation Yrotation
            JOINT LeftToes
            {
               OFFSET -0.052000 -5.739617 11.048829
               CHANNELS 3 Zrotation Xrotation Yrotation
               End Site
               {
                  OFFSET 0.104000 -0.061685 12.713727
               }
            }
         }
      }
   }
   JOINT RightUpLeg
   {
      OFFSET -11.629540 -11.267191 0.132145
      CHANNELS 3 Zrotation Xrotation Yrotation
      JOINT RightLeg
      {
         OFFSET 0.000000 -57.749504 1.784510
         CHANNELS 3 Zrotation Xrotation Yrotation
         JOINT RightFoot
         {
            OFFSET 0.329615 -54.720115 -1.898767
            CHANNELS 3 Zrotation Xrotation Yrotation
            JOINT RightToes
            {
               OFFSET 0.052000 -5.739617 11.048829
               CHANNELS 3 Zrotation Xrotation Yrotation
               End Site
               {
                  OFFSET -0.104000 -0.178685 12.713727
               }
            }
         }
      }
   }
}
MOTION
Frames: 13
Frame Time: 0.016670
7.153050 59.668273 -134.855593 -32.469234 35.271305 0.068494 65.127070 7.963217 166.307839 64.989066 41.103085 -105.337144 25.087452 52.779720 -22.676453 17.754332 -101.931394 80.534515 -64.249083 8.854894 32.728767 -11.598232 64.396635 -41.310862 -64.761340 -35.783863 -59.920491 404.516697 334.342213 342.038115 378.066953 219.029851 331.241280 11.884568 166.328002 79.175628 -27.688504 -21.148485 53.830155 107.143197 -55.135394 100.283979 38.735120 16.222886 69.141889 -31.124595 9.016266 4.265104 14.715625 -65.123204 -44.192444 184.338432 -91.273635 295.273121 -141.695730 237.965321 89.066486 -122.711698 188.515229 9.740921 44.841865 -20.194037 -59.474193
5.665045 61.402101 -132.061022 -24.687148 37.868304 -2.814720 59.158536 -6.899624 157.373624 63.859817 39.941348 -97.892156 26.353153 48.159408 -24.279740 29.498385 -97.736339 89.342324 -65.030921 -1.890098 37.538235 -5.406152 67.479926 -48.329377 -63.670586 -23.998648 -56.352459 407.084848 344.338168 353.826530 368.131787 208.852814 327.981285 13.926690 165.917548 73.498614 -26.173773 -26.737308 54.623004 100.653834 -53.378557 93.698352 35.351314 21.993450 81.398069 -34.715905 15.329707 -3.665757 5.060327 -69.538682 -53.682712 161.902107 -86.674424 276.500783 -139.668312 235.535904 99.273337 -117.922970 190.339901 14.857251 46.364970 -28.775584 -61.464340
3.799432 63.146872 -129.446161 -10.090124 36.969635 -13.284738 57.613069 -17.934646 143.482617 55.677001 33.322195 -86.696677 28.287811 46.766240 -25.765861 49.191589 -91.658707 86.529010 -52.205858 -15.554987 32.670075 -9.182128 77.481591 -59.351564 -66.418966 -37.760718 -50.683757 401.553050 354.423762 369.320350 367.359129 196.324048 327.050795 14.266243 166.797796 68.804962 -24.845867 -25.086820 47.788365 86.716205 -49.366951 86.237723 31.836584 28.138086 90.799107 -37.783326 24.275925 -11.008207 21.614516 -65.646499 -36.935604 141.933899 -87.707163 253.737648 -137.566785 233.566023 113.470643 -112.127411 189.354304 21.576844 42.742378 -40.040335 -63.983819
1.230520 65.484642 -126.952742 -7.803279 40.420598 -13.804617 67.259946 -20.636407 156.235304 64.485168 34.996093 -93.010900 31.057376 46.997937 -28.116011 35.514825 -88.103334 112.917268 -51.318896 -27.213951 34.433009 -2.951084 88.608645 -56.951996 -57.920755 -20.618736 -54.192128 403.724258 366.468964 375.521451 363.725031 193.177994 327.905115 18.467483 160.829986 64.247587 -21.734949 -25.417081 47.285103 86.440217 -47.907780 80.599381 27.418912 32.906506 97.308564 -38.713160 35.106407 -14.448683 12.414109 -71.338464 -45.664261 125.687270 -83.297231 231.984233 -132.782033 227.801562 126.810918 -108.370609 187.052817 23.299317 39.353907 -51.211560 -69.028842
-1.598016 67.730197 -124.535168 -11.882189 44.833676 -15.124779 71.099619 -23.543997 166.983741 62.485576 29.682486 -91.654957 29.496186 53.930689 -29.402247 48.880860 -89.388154 118.333560 -52.807416 -38.829492 24.044817 -3.872077 105.873458 -59.195890 -70.135996 -36.559284 -47.262355 395.802086 376.492294 382.269295 352.377464 185.271559 331.188469 20.543908 150.187746 61.721100 -19.742218 -24.544717 47.863985 87.561242 -41.546378 72.441635 25.859525 34.580459 98.156915 -37.762767 48.284977 -16.953120 21.243929 -55.458827 -36.652902 102.613805 -74.252113 203.766290 -130.491147 225.166188 141.912644 -104.818569 182.013463 25.728640 32.937272 -61.991432 -79.149653
-4.547736 70.201701 -121.864174 -12.924916 41.752707 -20.620934 67.686232 -18.022786 168.016138 57.601792 15.641476 -93.937087 23.924635 58.286512 -29.260141 58.285269 -82.168876 121.944340 -49.467368 -43.822296 22.461516 -5.711967 120.104423 -61.029940 -59.983582 -30.590921 -51.152147 387.639354 391.163158 385.171251 335.529983 182.312543 336.769580 16.650031 145.081537 60.634376 -20.131250 -26.982319 47.436050 82.873055 -30.106583 66.045853 24.428411 35.796041 96.668091 -37.326745 59.866868 -18.545476 16.740698 -62.738081 -43.029010 78.650243 -64.918257 172.220761 -128.639564 222.694561 159.277279 -102.283203 172.750456 25.662158 24.028397 -71.649982 -95.766724
-7.559270 72.796224 -119.004753 -17.434466 32.621424 -21.995724 51.696858 -10.632380 155.531931 44.765364 5.075123 -101.587220 17.671103 58.997412 -28.375097 80.235906 -63.526886 137.893227 -39.885948 -43.828474 33.940532 -12.437707 133.960678 -67.432559 -63.215737 -37.676454 -54.481397 379.808351 403.858950 391.653948 317.636253 178.872095 340.960339 13.173353 135.236912 59.320487 -20.331240 -27.781289 45.531066 76.678832 -17.051671 58.629524 21.327558 34.127327 89.885556 -40.365814 71.172163 -21.833874 14.868314 -51.155685 -39.047416 56.934029 -47.199667 140.641996 -123.740283 217.667624 182.132253 -101.410803 156.949551 22.589587 -120.775872 -84.219067 -238.935535
-10.587742 75.554293 -115.870112 -19.435276 14.164723 -18.171867 44.704076 1.878265 147.381439 46.131849 2.721824 -105.617046 9.405896 51.557174 -26.698636 128.703454 -49.484690 180.853519 -7.396770 -49.256616 55.094690 -11.569823 148.685432 -61.405545 -60.821899 -26.723228 -56.434062 376.615866 411.952123 396.130727 303.458502 180.049633 351.031070 9.250700 121.440736 58.452219 -18.160003 -26.762228 43.553456 69.456542 -8.473927 51.904885 21.781697 33.122480 82.955031 -41.043734 78.901259 -25.404031 22.290107 -61.448931 -48.945696 37.310885 -26.397018 111.822402 -121.686596 210.622147 207.298837 -100.680902 135.560636 15.120268 -35.503494 -86.001077 -164.014193
-13.458625 78.311247 -112.758196 -9.645044 -12.268438 -2.773830 12.483468 22.761535 139.623219 42.870167 -12.425726 -112.292709 -0.196978 41.339180 -24.987598 149.957787 -28.285714 201.389808 16.914487 -50.065645 63.723274 -16.217946 159.890316 -64.693277 -65.903334 -26.463821 -58.784303 364.410208 410.780035 409.903558 295.837158 187.033638 365.759608 6.620621 104.843069 59.671244 -17.355393 -25.561020 42.549087 50.730421 -4.413255 41.083714 21.979424 31.139836 71.771245 -41.853453 89.006551 -26.141005 16.189020 -54.051071 -47.691393 14.842156 0.134009 84.145301 -121.723670 196.958094 229.194210 -92.764993 109.397070 7.769802 -153.909338 -88.211777 -268.930803
-16.132682 81.404780 -109.772414 17.400513 -31.291422 13.853987 -8.370323 48.074020 140.077276 41.230263 -14.670662 -113.495546 -6.606006 33.872663 -24.754924 177.869546 -22.283518 212.979314 66.761746 -60.171508 88.749559 -24.078599 165.505100 -73.953914 -63.621634 -18.966337 -64.933242 356.506641 406.631788 418.821599 300.060155 202.028608 379.722946 4.286053 91.389290 58.546298 -15.028586 -22.431922 39.340223 27.190081 10.777182 32.280591 24.624113 36.814566 68.555961 -39.650560 94.713858 -25.893095 29.404965 -56.456196 -54.360735 -7.329789 23.431095 49.305469 -115.720999 161.423393 233.385651 -78.941974 91.409583 4.511253 -267.067773 -87.892582 -370.179779
-18.980866 84.974831 -106.739958 39.955667 -40.533184 26.401034 -21.367762 58.539789 137.720000 50.267723 -5.164451 -108.577229 -11.895905 27.829275 -24.652671 187.170078 -14.647662 214.781418 96.606824 -60.192558 112.902590 -26.552331 174.687648 -76.235723 -65.052764 -17.853254 -67.956653 355.440859 406.083515 426.099412 305.651266 214.686096 390.936833 2.755733 79.730540 61.057192 -13.289053 -18.221379 37.687495 6.489006 28.671966 27.517867 20.807598 38.421805 71.754190 -35.997207 99.460552 -21.768658 20.187611 -53.794765 -52.491834 -20.451567 36.047321 3.106684 -21.369527 60.234475 202.188653 -66.738216 85.940862 -0.319786 -311.150115 -73.708075 -426.345654
-21.779585 88.812379 -103.877505 48.498455 -36.160835 49.321561 -28.987627 68.328120 134.118769 44.531853 -11.376187 -109.286954 -12.948195 21.570420 -24.903580 188.041651 -3.256698 216.932504 110.015517 -63.437001 121.308067 -22.758124 183.215685 -72.100399 -60.826079 -15.416253 -68.100394 356.515985 408.466049 429.901641 313.289904 223.585245 403.808024 4.432713 68.498936 67.533372 -11.323772 -13.824656 32.643024 3.017718 29.156332 18.367658 27.405181 33.056155 68.018425 -37.380997 101.520086 -24.030327 21.225166 -53.567131 -56.568166 -23.294224 59.401438 4.177148 27.774040 38.210049 158.745604 -69.943869 88.037635 3.290485 -292.119158 -68.064037 -431.606976
-24.448769 92.877224 -101.182764 58.179353 -28.730091 64.535917 -29.788825 77.573525 127.562211 46.727250 -14.384284 -106.807309 -12.342150 16.275815 -25.157178 189.725976 -1.061090 221.695455 129.335806 -63.726601 142.102359 -21.807537 189.612595 -73.696949 -60.456716 -14.826131 -66.043886 358.959909 409.106830 432.440614 325.239074 231.215782 419.442081 2.947024 58.261568 69.983300 -12.580619 -12.909544 30.968501 -2.394568 31.726242 11.826446 22.405087 36.545849 64.460716 -37.200642 105.711275 -24.883549 19.397160 -48.136161 -62.348870 -17.366576 64.779748 10.523076 40.289336 28.592960 141.864819 -74.085655 91.218092 8.264832 -283.864438 -60.280354 -443.084562
